<svg xmlns="http://www.w3.org/2000/svg" width="91" height="91" viewBox="0 0 91 91"><path d="M70.582 18.209l-2.514-5.307a3.944 3.944 0 0 0-3.551-2.248h-6.963l6.895-2.955c.57-.245.834-.906.59-1.478s-.906-.836-1.477-.591l-11.721 5.023H27.34a3.943 3.943 0 0 0-3.551 2.248l-2.503 5.285a2.287 2.287 0 0 0-.236.976c0 .011-.006.02-.006.029l.002.008a.05.05 0 0 0-.002.012v57.728c.006.345.09.688.231.965l2.486 5.25a4.054 4.054 0 0 0 3.644 2.306H64.45c1.551 0 2.98-.905 3.645-2.307l2.475-5.222c.152-.301.236-.644.244-1.028V19.174a2.225 2.225 0 0 0-.232-.965zm-44.758-4.345c.275-.583.87-.96 1.517-.96h37.177c.646 0 1.242.377 1.518.961l2.529 5.347-.016 56.584H23.505c-.074 0-.14.028-.211.043l.015-55.521h41.21a1.125 1.125 0 0 0 0-2.25H23.833l1.991-4.204zM66.063 82.19a1.791 1.791 0 0 1-1.611 1.02H27.406a1.79 1.79 0 0 1-1.61-1.02l-1.96-4.145h44.19l-1.963 4.145z"/><path d="M45.929 31.726c-9.494 0-17.218 7.725-17.218 17.219 0 9.493 7.724 17.217 17.218 17.217 9.495 0 17.217-7.724 17.217-17.217 0-9.495-7.722-17.219-17.217-17.219zm0 2.25c7.19 0 13.209 5.1 14.641 11.871-.4.457-1.814 1.954-3.912 2.923-3.234 1.494-6.473.972-9.625-1.552-7.339-5.868-13.624-2.32-15.865-.646 1.143-7.128 7.317-12.596 14.761-12.596zm0 29.935c-8.166 0-14.816-6.576-14.955-14.71.324.032.658-.061.906-.309.247-.248 6.153-5.992 13.747.082 2.683 2.147 5.22 2.874 7.423 2.874 1.76 0 3.309-.463 4.551-1.036 1.359-.627 2.463-1.435 3.281-2.14.002.091.014.18.014.271 0 8.254-6.714 14.968-14.967 14.968z"/></svg>