<svg xmlns="http://www.w3.org/2000/svg" width="100" height="100" enable-background="new 0 0 100 100" viewBox="0 0 100 100"><path d="M68.529,11.5H57.662V5c0-0.829-0.671-1.5-1.5-1.5H43.838c-0.829,0-1.5,0.671-1.5,1.5v6.5H31.471
		c-0.829,0-1.5,0.671-1.5,1.5v82c0,0.829,0.671,1.5,1.5,1.5h37.059c0.829,0,1.5-0.671,1.5-1.5V13
		C70.029,12.171,69.358,11.5,68.529,11.5z M67.029,93.5H32.971v-79h10.868h12.323h10.868V93.5z M45.338,6.5h9.323v5h-9.323V6.5z"/><path d="M36.651,35.923c-0.622-0.055-1.207,0.279-1.479,0.838c-0.271,0.559-0.171,1.228,0.254,1.682
		c3.207,3.425,4.073,5.964,3.563,10.448c-0.451,3.964,1.189,8.577,4.279,12.039c3.424,3.835,8.22,5.948,13.504,5.948
		c0.001,0,0.001,0,0.002,0c0.569,0,1.149-0.033,1.732-0.081c0.54,1.848,0.958,3.755,1.169,5.715
		c0.083,0.769,0.733,1.339,1.489,1.339c0.054,0,0.108-0.003,0.163-0.009c0.824-0.089,1.419-0.828,1.331-1.652
		c-0.286-2.656-0.899-5.239-1.725-7.706l-0.01-1.407c-0.031-5.632-0.061-10.952-1.761-14.438
		C55.694,41.528,50.898,37.168,36.651,35.923z M57.818,57.351c-3.631-6.73-8.376-11.799-11.233-13.631
		c-0.699-0.448-1.626-0.244-2.072,0.453c-0.447,0.698-0.244,1.625,0.453,2.072c2.875,1.842,9.143,8.712,12.553,17.608
		c-0.249,0.01-0.5,0.024-0.744,0.024c-0.001,0-0.001,0-0.002,0c-4.419,0-8.42-1.757-11.267-4.946
		c-2.538-2.843-3.893-6.561-3.536-9.702c0.462-4.061-0.071-6.969-1.999-9.905c11.196,1.645,14.139,5.8,16.495,10.63
		C57.34,51.745,57.679,54.358,57.818,57.351z"/></svg>