<svg xmlns="http://www.w3.org/2000/svg" enable-background="new 0 0 395.066 395.066" viewBox="0 0 395.066 395.066"><path d="M330.195,164.506h-0.201v-53.864c0-0.001,0-0.002,0-0.003c0-0.297-0.036-0.592-0.089-0.885
		c-0.014-0.075-0.027-0.15-0.044-0.224c-0.063-0.276-0.142-0.549-0.252-0.813c-0.015-0.036-0.035-0.068-0.051-0.103
		c-0.072-0.161-0.145-0.322-0.235-0.477L284.71,31.03V16.556C284.71,7.427,277.283,0,268.154,0H126.702
		c-9.128,0-16.555,7.427-16.555,16.556v14.491l-44.603,77.092c-0.089,0.153-0.161,0.312-0.232,0.471
		c-0.017,0.038-0.038,0.072-0.054,0.11c-0.11,0.264-0.189,0.536-0.252,0.811c-0.017,0.074-0.031,0.149-0.044,0.225
		c-0.053,0.293-0.089,0.588-0.089,0.885c0,0.001,0,0.001,0,0.001v53.865v171.405v54.155c0,2.761,2.239,5,5,5h255.123
		c2.762,0,5-2.239,5-5v-54.155h0.201V164.506z M239.425,174.506h80.569v151.405h-80.569V174.506z M239.425,164.506v-48.864h78.853
		h1.717v48.864H239.425z M279.713,42.363l36.573,63.213c-15.634-0.687-29.934-9.393-37.657-23.106l-10.915-19.379L279.713,42.363z
		 M261.898,73.142l8.018,14.235c4.157,7.381,9.88,13.573,16.611,18.266h-43.433L261.898,73.142z M120.146,16.556
		c0-3.615,2.94-6.556,6.555-6.556h141.453c3.615,0,6.556,2.941,6.556,6.556v10.833H120.146V16.556z M118.03,37.388h153
		l-39.49,68.254h-153L118.03,37.388z M74.871,115.643h154.554v48.864H74.871V115.643z M229.425,325.911H74.871V174.506h154.554
		V325.911z M74.871,335.911h154.554v49.155H74.871V335.911z M319.994,385.066h-80.569v-49.155h80.569V385.066z"/><path d="M83.889 247.04l4.222 2.959c7.235 5.069 17.057 4.254 23.356-1.942l1.064-1.047 10.92 59.261c.25 1.357 1.045 2.488 2.122 3.218.016.011.031.022.047.033.242.16.496.298.764.415.032.014.061.031.094.044.268.11.546.197.834.259.031.007.06.019.092.025.313.062.634.1.964.1h.026 47.506c.324 0 .64-.036.948-.096.109-.021.21-.058.316-.086.195-.051.388-.104.573-.178.117-.046.226-.104.338-.159.164-.08.325-.163.479-.26.107-.068.209-.141.311-.217.145-.107.283-.221.416-.343.092-.085.18-.171.266-.262.124-.133.237-.274.347-.42.075-.1.149-.198.216-.303.098-.155.181-.318.263-.484.055-.113.115-.221.162-.339.071-.179.122-.367.173-.556.031-.115.073-.226.096-.345.003-.016.01-.031.013-.047l10.924-59.283 1.086 1.069c6.298 6.195 16.12 7.013 23.354 1.942l4.222-2.958c1.956-1.37 3.126-3.523 3.212-5.909.085-2.385-.928-4.617-2.78-6.123l-11.453-9.315-5.6-4.774c-5.306-4.524-10.071-9.681-14.166-15.328l-5.629-7.767c-3.445-4.867-9.061-7.772-15.023-7.772h-33.662c-5.962 0-11.579 2.906-14.991 7.727l-5.688 7.848c-4.076 5.624-8.822 10.763-14.104 15.275l-5.612 4.793-11.451 9.313c-1.852 1.506-2.865 3.737-2.779 6.123C80.765 243.517 81.935 245.67 83.889 247.04zM133.395 300.365v-7.837c0-2.615 2.127-4.743 4.742-4.743h28.021c2.615 0 4.743 2.127 4.743 4.743v7.837H133.395zM101.266 233.416c.031-.025.062-.051.093-.077l5.658-4.833c5.882-5.024 11.167-10.748 15.706-17.01l5.721-7.893c1.573-2.223 4.138-3.55 6.861-3.55h33.662c2.723 0 5.288 1.327 6.894 3.595l5.662 7.812c4.559 6.289 9.866 12.031 15.774 17.069l5.645 4.812c.029.025.06.05.09.074l8.976 7.3-1.562 1.094c-3.285 2.302-7.743 1.93-10.603-.882l-7.803-7.675c-1.32-1.297-3.247-1.761-5.011-1.204-1.764.557-3.077 2.042-3.412 3.862l-8.307 45.079c-2.517-2-5.693-3.205-9.15-3.205h-28.021c-3.467 0-6.653 1.211-9.173 3.222l-8.306-45.075c-.335-1.819-1.648-3.305-3.412-3.862-1.766-.558-3.693-.094-5.011 1.204l-7.78 7.654c-2.859 2.812-7.318 3.185-10.604.881l-1.561-1.094L101.266 233.416zM169.729 45.468c-12.459 0-22.595 10.136-22.595 22.595s10.136 22.595 22.595 22.595 22.595-10.136 22.595-22.595S182.188 45.468 169.729 45.468zM169.729 80.657c-6.945 0-12.595-5.65-12.595-12.595s5.65-12.595 12.595-12.595 12.595 5.65 12.595 12.595S176.674 80.657 169.729 80.657z"/></svg>