<svg xmlns="http://www.w3.org/2000/svg" data-name="Layer 1" viewBox="0 0 32 32"><path d="M16.288,13.2a.5.5,0,0,0-.576,0c-.147.1-3.6,2.577-3.6,5.8a3.892,3.892,0,0,0,7.783,0C19.892,15.777,16.436,13.3,16.288,13.2ZM16,21.892A2.9,2.9,0,0,1,13.108,19c0-2.211,2.108-4.126,2.892-4.761.784.634,2.892,2.544,2.892,4.761A2.9,2.9,0,0,1,16,21.892Zm10,7.2V4.908A1.5,1.5,0,0,0,25.5,2H24V1.5A1.5,1.5,0,0,0,22.5,0h-4A1.5,1.5,0,0,0,17,1.5V2H6.5A1.5,1.5,0,0,0,6,4.908V29.092A1.5,1.5,0,0,0,6.5,32h19a1.5,1.5,0,0,0,.5-2.908ZM18,1.5a.5.5,0,0,1,.5-.5h4a.5.5,0,0,1,.5.5V2H18ZM6.5,3h19a.5.5,0,0,1,0,1H6.5a.5.5,0,0,1,0-1ZM7,25V9H25V25Zm18,1v3H7V26ZM7,8V5H25V8ZM25.5,31H6.5a.5.5,0,0,1,0-1h19a.5.5,0,0,1,0,1Z"/></svg>