<svg xmlns="http://www.w3.org/2000/svg" data-name="Layer 1" viewBox="0 0 32 32"><path d="M15.5,19h-9A1.5,1.5,0,0,0,5,20.5v5A1.5,1.5,0,0,0,6.5,27h9A1.5,1.5,0,0,0,17,25.5v-5A1.5,1.5,0,0,0,15.5,19Zm.5,6.5a.5.5,0,0,1-.5.5h-9a.5.5,0,0,1-.5-.5v-5a.5.5,0,0,1,.5-.5h9a.5.5,0,0,1,.5.5ZM31.144,8.869l-2.9-5.074A1.5,1.5,0,0,0,29,2.5v-1A1.5,1.5,0,0,0,27.5,0h-4A1.5,1.5,0,0,0,22,1.5v1a1.5,1.5,0,0,0,.756,1.294L20.914,7.019A1.5,1.5,0,0,0,19.5,6h-2A1.5,1.5,0,0,0,16,7.5v5A1.5,1.5,0,0,1,14.5,14h-7A1.5,1.5,0,0,1,6,12.5v-5A1.5,1.5,0,0,0,4.5,6h-2A1.5,1.5,0,0,0,1,7.5v23A1.5,1.5,0,0,0,2.5,32h19a.493.493,0,0,0,.167-.034A2.94,2.94,0,0,0,22,32a2.973,2.973,0,0,0,1.75-.565,3.056,3.056,0,0,0,3.5,0A2.973,2.973,0,0,0,29,32a3,3,0,0,0,3-3V12.093A6.5,6.5,0,0,0,31.144,8.869ZM23,1.5a.5.5,0,0,1,.5-.5h4a.5.5,0,0,1,.5.5v1a.5.5,0,0,1-.5.5h-4a.5.5,0,0,1-.5-.5ZM23.79,4h3.42l1.284,2.248a8.443,8.443,0,0,1-3,.565h-.058a8.456,8.456,0,0,1-2.935-.564ZM19.78,31H2.5a.5.5,0,0,1-.5-.5V7.5A.5.5,0,0,1,2.5,7h2a.5.5,0,0,1,.5.5v5A2.5,2.5,0,0,0,7.5,15h7A2.5,2.5,0,0,0,17,12.5v-5a.5.5,0,0,1,.5-.5h2a.5.5,0,0,1,.5.5V8.619l-.143.25A6.5,6.5,0,0,0,19,12.093V29A2.977,2.977,0,0,0,19.78,31ZM31,29a2,2,0,0,1-3.4,1.426.5.5,0,0,0-.7,0,2.041,2.041,0,0,1-2.8,0,.5.5,0,0,0-.7,0A2,2,0,0,1,20,29V24H31Zm0-6H20V17H31Zm0-7H20V12.093a5.5,5.5,0,0,1,.726-2.729l1.28-2.241a9.455,9.455,0,0,0,3.428.689H25.5a9.452,9.452,0,0,0,3.5-.689l1.281,2.242A5.507,5.507,0,0,1,31,12.093Z"/></svg>