<svg xmlns="http://www.w3.org/2000/svg" width="91" height="91" viewBox="0 0 91 91"><path d="M56.037 82.272c-.16-.055-4-1.333-10.423-1.333-6.438 0-10.468 1.271-10.636 1.325a1.125 1.125 0 0 0 .688 2.143c.038-.013 3.862-1.218 9.948-1.218 6.056 0 9.663 1.201 9.698 1.214a1.121 1.121 0 0 0 1.427-.704 1.125 1.125 0 0 0-.702-1.427z"/><path d="M60.019 40.174c-.177-5.686-3.581-10.658-8.753-12.883V4.869a2.159 2.159 0 0 0-2.156-2.156h-7.219a2.159 2.159 0 0 0-2.156 2.156v22.422a14.433 14.433 0 0 0-8.753 12.867 3.737 3.737 0 0 0-.013.299v42.729a5.107 5.107 0 0 0 5.101 5.102h18.858a5.109 5.109 0 0 0 5.104-5.102V40.457a4.182 4.182 0 0 0-.013-.283zm-26.8 8.289h24.559l.003 26.25H33.219v-26.25zm.008-8.199a12.212 12.212 0 0 1 7.853-11.086h4.327a1.125 1.125 0 0 0 0-2.25h-3.422V4.963h7.031v23.09c0 .472.294.893.736 1.056 4.723 1.738 7.871 6.117 8.024 11.241l.001 5.863H33.219v-5.756l.008-.193zm21.701 45.773H36.069a2.855 2.855 0 0 1-2.851-2.852v-6.223H57.78l.001 6.223a2.856 2.856 0 0 1-2.853 2.852z"/><path d="M36.395 50.713c-.621 0-1.125.504-1.125 1.125v16.5a1.125 1.125 0 002.25 0v-16.5c0-.621-.504-1.125-1.125-1.125zM35.597 70.542c-.21.21-.33.5-.33.8 0 .29.12.58.33.79s.5.33.8.33a1.13 1.13 0 001.12-1.12c0-.3-.12-.59-.33-.8-.41-.42-1.16-.42-1.59 0z"/></svg>